<?xml version="1.0" encoding="utf-8"?>
<!-- Generator: Adobe Illustrator 23.0.3, SVG Export Plug-In . SVG Version: 6.00 Build 0)  -->
<svg version="1.1" id="e7d62c2c-c7a6-4c77-8f5c-a3fe0c7ac473"
	 xmlns="http://www.w3.org/2000/svg" xmlns:xlink="http://www.w3.org/1999/xlink" x="0px" y="0px" viewBox="0 0 1062 794.4"
	 style="enable-background:new 0 0 1062 794.4;" xml:space="preserve">
<style type="text/css">
	.st0{opacity:0.1;fill:#FF5757;enable-background:new    ;}
	.st1{fill:#E8E9ED;}
	.st2{opacity:0.5;fill:#3ACC6C;enable-background:new    ;}
	.st3{opacity:0.5;fill:#E54A4E;enable-background:new    ;}
	.st4{opacity:0.8;fill:#3ACC6C;enable-background:new    ;}
	.st5{opacity:0.8;fill:#E54A4E;enable-background:new    ;}
	.st6{fill:#970004;}
	.st7{fill:#F3F5F7;}
	.st8{opacity:0.1;enable-background:new    ;}
	.st9{fill:none;stroke:#535461;stroke-width:2;stroke-miterlimit:10;}
	.st10{fill:#6C63FF;}
	.st11{fill:#E3787D;}
	.st12{fill:#E54A4E;}
	.st13{opacity:0.8;enable-background:new    ;}
	.st14{opacity:0.1;fill:#6C63FF;enable-background:new    ;}
	.st15{fill:#FFFFFF;}
	.st16{fill:#FFD037;}
	.st17{fill:#65617D;}
	.st18{fill:#9D9CB5;}
	.st19{fill:url(#SVGID_1_);}
	.st20{fill:url(#SVGID_2_);}
	.st21{fill:url(#SVGID_3_);}
	.st22{opacity:0.1;}
	.st23{fill:url(#SVGID_4_);}
	.st24{fill:url(#SVGID_5_);}
	.st25{fill:url(#SVGID_6_);}
	.st26{fill:url(#SVGID_7_);}
	.st27{fill:url(#SVGID_8_);}
	.st28{fill:url(#SVGID_9_);}
	.st29{fill:url(#SVGID_10_);}
	.st30{fill:url(#SVGID_11_);}
	.st31{fill:url(#SVGID_12_);}
	.st32{fill:url(#SVGID_13_);}
	.st33{fill:url(#SVGID_14_);}
	.st34{fill:url(#SVGID_15_);}
	.st35{fill:url(#SVGID_16_);}
	.st36{fill:url(#SVGID_17_);}
	.st37{fill:url(#SVGID_18_);}
	.st38{fill:url(#SVGID_19_);}
	.st39{fill:url(#SVGID_20_);}
	.st40{fill:url(#SVGID_21_);}
	.st41{fill:url(#SVGID_22_);}
	.st42{fill:url(#SVGID_23_);}
	.st43{fill:url(#SVGID_24_);}
	.st44{fill:url(#SVGID_25_);}
	.st45{fill:url(#SVGID_26_);}
	.st46{fill:url(#SVGID_27_);}
	.st47{fill:url(#SVGID_28_);}
	.st48{fill:url(#SVGID_29_);}
	.st49{fill:url(#SVGID_30_);}
	.st50{fill:url(#SVGID_31_);}
	.st51{fill:url(#SVGID_32_);}
	.st52{fill:url(#SVGID_33_);}
	.st53{fill:url(#SVGID_34_);}
	.st54{fill:url(#SVGID_35_);}
	.st55{fill:#EFB7B9;}
	.st56{fill:#444053;}
</style>
<title>setup wizard</title>
<path class="st0" d="M605.9,111.4c-64.7-2.2-126.4-23.1-185.2-46S303.5,17.2,240.3,5.1C199.7-2.7,153.2-3.8,120.5,18
	C89,39,78.8,75.2,73.3,108.7c-4.1,25.3-6.5,51.8,4.7,75.5c7.8,16.4,21.7,30.2,31.4,45.9c33.5,54.7,9.8,122.2-26.4,175.6
	c-17,25.1-36.8,49-49.9,75.7s-19.2,57.3-7.7,84.5c11.4,27,38.5,47.2,67.9,61.5c59.7,29,130,37.2,198.6,41.9
	c151.8,10.4,304.5,5.9,456.7,1.4c56.3-1.7,112.9-3.3,168.3-12.1c30.8-4.8,62.6-12.5,84.9-31.1c28.4-23.5,35.4-63.4,16.4-92.9
	c-31.9-49.5-120-61.8-142.3-114.9c-12.3-29.2,0.3-61.8,18.2-88.9c38.2-58.2,102.3-109.2,105.7-175.7c2.3-45.7-28.5-91.4-76.1-113
	c-49.9-22.7-119.2-19.8-156,17.7C729.7,98.5,663,113.4,605.9,111.4z"/>
<rect y="123.5" class="st1" width="259.5" height="259.5"/>
<rect x="802.5" y="123.5" class="st1" width="259.5" height="259.5"/>
<path class="st2" d="M145.4,32l-2.6-2.7c-0.1-0.1-0.3-0.2-0.4-0.2c-0.2,0-0.3,0.1-0.4,0.2l-17.9,18l-6.5-6.5c-0.2-0.2-0.6-0.2-0.8,0
	c0,0,0,0,0,0l-2.6,2.6c-0.2,0.2-0.2,0.6,0,0.8c0,0,0,0,0,0l8.2,8.2c0.4,0.5,1.1,0.8,1.7,0.8c0.6-0.1,1.3-0.3,1.7-0.8l0,0l19.6-19.7
	C145.6,32.6,145.6,32.3,145.4,32L145.4,32z"/>
<path class="st3" d="M129.8,14.9c14.6,0,26.4,11.8,26.4,26.4c0,14.6-11.8,26.4-26.4,26.4c-14.6,0-26.4-11.8-26.4-26.4
	c0-7,2.8-13.7,7.7-18.6C116,17.6,122.7,14.9,129.8,14.9 M129.8,10.8c-16.9,0-30.5,13.7-30.5,30.5s13.7,30.5,30.5,30.5
	s30.5-13.7,30.5-30.5c0,0,0,0,0,0C160.3,24.4,146.6,10.8,129.8,10.8C129.8,10.8,129.8,10.8,129.8,10.8z"/>
<path class="st4" d="M345.8,117.4l-3.3-3.3c-0.1-0.1-0.3-0.2-0.5-0.2c-0.2,0-0.4,0.1-0.5,0.2L319,136.7l-8.2-8.2
	c-0.1-0.1-0.3-0.2-0.5-0.2c-0.2,0-0.4,0.1-0.5,0.2l-3.3,3.3c-0.3,0.3-0.3,0.7,0,1c0,0,0,0,0,0l10.3,10.3c0.6,0.6,1.3,1,2.2,1.1
	c0.8-0.1,1.6-0.4,2.1-1l0,0l24.7-24.8C346,118.1,346,117.7,345.8,117.4L345.8,117.4z"/>
<path class="st5" d="M326.1,95.8c18.4,0,33.2,14.9,33.2,33.3s-14.9,33.2-33.3,33.2s-33.2-14.9-33.2-33.3c0-8.8,3.5-17.3,9.7-23.5
	C308.8,99.2,317.3,95.7,326.1,95.8 M326.1,90.6c-21.2,0-38.4,17.2-38.4,38.4s17.2,38.4,38.4,38.4s38.4-17.2,38.4-38.4l0,0
	C364.6,107.8,347.4,90.6,326.1,90.6C326.1,90.6,326.1,90.6,326.1,90.6z"/>
<path class="st3" d="M932.2,14.9c14.6,0,26.4,11.8,26.4,26.4c0,14.6-11.8,26.4-26.4,26.4s-26.4-11.8-26.4-26.4
	c0-7,2.8-13.7,7.7-18.6C918.5,17.6,925.2,14.9,932.2,14.9 M932.2,10.8c-16.9,0-30.5,13.7-30.5,30.5s13.7,30.5,30.5,30.5
	c16.9,0,30.5-13.7,30.5-30.5c0,0,0,0,0,0C962.8,24.4,949.1,10.8,932.2,10.8C932.3,10.8,932.3,10.8,932.2,10.8z"/>
<path class="st5" d="M734.5,95.8c18.4,0,33.3,14.8,33.3,33.2s-14.8,33.3-33.2,33.3c-18.4,0-33.3-14.8-33.3-33.2
	c0-8.8,3.5-17.3,9.7-23.6C717.2,99.2,725.7,95.7,734.5,95.8 M734.5,90.6c-21.2,0-38.4,17.2-38.4,38.4s17.2,38.4,38.4,38.4
	S773,150.2,773,129l0,0C773,107.8,755.8,90.6,734.5,90.6C734.5,90.6,734.5,90.6,734.5,90.6L734.5,90.6z"/>
<path class="st6" d="M529.3,156.7c24.3,0,43.9,19.7,43.9,44c0,24.3-19.7,43.9-44,43.9c-24.3,0-43.9-19.7-43.9-44
	c0-11.6,4.6-22.8,12.9-31C506.5,161.3,517.7,156.7,529.3,156.7 M529.3,149.9c-28.1,0-50.8,22.7-50.8,50.8s22.7,50.8,50.8,50.8
	s50.8-22.7,50.8-50.8l0,0C580.1,172.7,557.4,149.9,529.3,149.9C529.3,149.9,529.3,149.9,529.3,149.9z"/>
<rect x="181.5" y="191.5" class="st7" width="289.2" height="289.2"/>
<rect x="589.9" y="191.5" class="st7" width="289.2" height="289.2"/>
<rect x="25.9" y="169.5" class="st8" width="96.5" height="10.7"/>
<rect x="849.2" y="169.5" class="st8" width="96.5" height="10.7"/>
<path class="st9" d="M701.2,618.4c0,0,25.1-44.4,62.8-57.2c15.9-5.3,29.6-15.5,39.1-29.3c4.5-6.6,8.3-13.5,11.5-20.8"/>
<path class="st10" d="M838.4,503c-4.3,4.2-24.3,8.5-24.3,8.5s4.9-19.9,9.2-24.1c4.3-4.2,11.2-4.1,15.3,0.2
	C842.8,492,842.7,498.8,838.4,503L838.4,503z"/>
<path class="st10" d="M827,539c-5.9,1.2-25-6.1-25-6.1s14.9-14,20.8-15.2c5.9-1,11.5,2.9,12.6,8.8C836.4,532.2,832.7,537.7,827,539
	L827,539z"/>
<path class="st10" d="M785.8,577.9c-5.7-2-18.5-17.9-18.5-17.9s20-4.6,25.6-2.6c5.7,2,8.7,8.1,6.7,13.8S791.5,579.9,785.8,577.9z"/>
<path class="st10" d="M748,600.4c-5.9-1-21.3-14.5-21.3-14.5s18.9-7.9,24.8-6.9c5.9,0.9,10,6.5,9.1,12.4c-0.9,5.9-6.5,10-12.4,9.1
	C748.1,600.4,748.1,600.4,748,600.4z"/>
<path class="st10" d="M785.3,517.4c0,6,10.8,23.4,10.8,23.4s10.8-17.4,10.8-23.4c0-6-4.9-10.9-10.8-10.9
	C790.2,506.5,785.3,511.4,785.3,517.4L785.3,517.4z"/>
<path class="st10" d="M741.4,544.2c1.8,5.7,17.3,19.1,17.3,19.1s5.2-19.8,3.4-25.5c-1.8-5.7-7.9-8.9-13.6-7.1
	C742.8,532.4,739.6,538.5,741.4,544.2L741.4,544.2z"/>
<path class="st10" d="M702.3,576.1c0.8,5.9,13.9,21.7,13.9,21.7s8.4-18.7,7.7-24.6c-0.8-5.9-6.3-10.1-12.2-9.3
	S701.5,570.1,702.3,576.1L702.3,576.1z"/>
<path class="st5" d="M838.4,503c-4.3,4.2-24.3,8.5-24.3,8.5s4.9-19.9,9.2-24.1c4.3-4.2,11.2-4.1,15.3,0.2
	C842.8,492,842.7,498.8,838.4,503L838.4,503z"/>
<path class="st5" d="M827,539c-5.9,1.2-25-6.1-25-6.1s14.9-14,20.8-15.2c5.9-1,11.5,2.9,12.6,8.8C836.4,532.2,832.7,537.7,827,539
	L827,539z"/>
<path class="st6" d="M785.8,577.9c-5.7-2-18.5-17.9-18.5-17.9s20-4.6,25.6-2.6c5.7,2,8.7,8.1,6.7,13.8S791.5,579.9,785.8,577.9z"/>
<path class="st11" d="M748,600.4c-5.9-1-21.3-14.5-21.3-14.5s18.9-7.9,24.8-6.9c5.9,0.9,10,6.5,9.1,12.4c-0.9,5.9-6.5,10-12.4,9.1
	C748.1,600.4,748.1,600.4,748,600.4z"/>
<path class="st6" d="M785.3,517.4c0,6,10.8,23.4,10.8,23.4s10.8-17.4,10.8-23.4c0-6-4.9-10.9-10.8-10.9
	C790.2,506.5,785.3,511.4,785.3,517.4L785.3,517.4z"/>
<path class="st11" d="M741.4,544.2c1.8,5.7,17.3,19.1,17.3,19.1s5.2-19.8,3.4-25.5c-1.8-5.7-7.9-8.9-13.6-7.1
	C742.8,532.4,739.6,538.5,741.4,544.2L741.4,544.2z"/>
<path class="st11" d="M702.3,576.1c0.8,5.9,13.9,21.7,13.9,21.7s8.4-18.7,7.7-24.6c-0.8-5.9-6.3-10.1-12.2-9.3
	S701.5,570.1,702.3,576.1L702.3,576.1z"/>
<path class="st9" d="M702.6,617.5c0,0,4.9-50.7,34.2-77.7c12.4-11.3,20.8-26.2,23.9-42.6c1.4-7.8,2.1-15.7,2.1-23.7"/>
<path class="st11" d="M781.3,456.4C779,462,762.5,474,762.5,474s-3.6-20.2-1.3-25.7c2.2-5.6,8.6-8.2,14.1-6S783.5,450.9,781.3,456.4
	L781.3,456.4L781.3,456.4z"/>
<path class="st6" d="M785.5,493.9c-4.9,3.5-25.3,4.6-25.3,4.6s8-18.9,12.9-22.3c5-3.3,11.7-1.9,15,3.1
	C791.2,484.1,790.1,490.5,785.5,493.9z"/>
<path class="st6" d="M763.6,546.2c-6,0.5-24.2-8.8-24.2-8.8s16.4-12.3,22.4-12.8c6-0.6,11.3,3.7,11.9,9.7s-3.7,11.3-9.7,11.9
	C763.8,546.2,763.7,546.2,763.6,546.2z"/>
<path class="st6" d="M738.1,582.1c-5.8,1.5-25.3-4.6-25.3-4.6s14.1-14.9,19.9-16.4c5.8-1.4,11.7,2.2,13.1,8
	C747.1,574.8,743.7,580.5,738.1,582.1L738.1,582.1z"/>
<path class="st6" d="M738.6,491.1c2.4,5.5,19.4,17,19.4,17s2.9-20.3,0.5-25.8c-2.4-5.5-8.8-8-14.3-5.5
	C738.6,479.2,736.2,485.6,738.6,491.1L738.6,491.1z"/>
<path class="st6" d="M709.3,533.4c4,4.5,23.6,10.4,23.6,10.4s-3.3-20.2-7.3-24.7c-4-4.5-10.8-4.9-15.3-1S705.3,528.9,709.3,533.4
	L709.3,533.4L709.3,533.4z"/>
<path class="st10" d="M686.5,578.4c3.1,5.1,21.5,14.2,21.5,14.2s0.2-20.5-3-25.6c-3.1-5.1-9.8-6.7-14.9-3.6S683.3,573.3,686.5,578.4
	L686.5,578.4z"/>
<rect x="218.9" y="253.2" class="st8" width="96.5" height="10.7"/>
<rect x="396.6" y="347.5" class="st8" width="57.6" height="10.7"/>
<rect x="396.6" y="419.4" class="st8" width="85.3" height="10.7"/>
<rect x="218.9" y="291" class="st8" width="96.5" height="10.7"/>
<rect x="652.9" y="253.2" class="st8" width="96.5" height="10.7"/>
<rect x="652.9" y="291" class="st8" width="96.5" height="10.7"/>
<path class="st12" d="M515.7,215.6l2.7-3.5c2.6,2.5,6.1,4,9.7,4c4.6,0,7.9-2.2,7.9-5.8c0-3.9-3.2-6.5-12.2-6.5v-4.1
	c8,0,11-2.6,11-6.1c0-3.1-2.7-5.1-6.7-5.1c-3.1,0.1-6.1,1.3-8.4,3.4l-2.9-3.4c3.2-2.8,7.2-4.4,11.5-4.4c6.9,0,12,3.3,12,9.1
	c0,4.1-3,6.8-7.3,8.3v0.2c4.6,1,8.5,4.1,8.5,8.9c0,6.3-6,10.1-13.1,10.1C522.4,220.6,518.3,218.3,515.7,215.6z"/>
<g class="st13">
	<path class="st12" d="M737.7,123.5c0-1.9,0.2-4.4,0.3-6.3h-0.3c-1.1,1.7-2.3,3.4-3.5,5.1l-8,10.3h21.2v4.1h-26.7v-3.5l16-21h5.9
		v33.4h-4.9V123.5z"/>
</g>
<g class="st13">
	<path class="st12" d="M921.8,51.9l1.8-2.5c1.7,1.7,4.1,2.7,6.5,2.7c3.2,0,5.8-1.9,5.8-5.1s-2.2-4.8-5.5-4.8c-1.7,0-3.3,0.5-4.7,1.4
		l-1.9-1.2l0.8-11.8h14v3.3h-10.7l-0.6,6.5c1.3-0.6,2.7-0.9,4.2-0.9c4.6,0,8.3,2.4,8.3,7.6s-4.4,8.3-9.1,8.3
		C927.4,55.3,924.2,54.1,921.8,51.9z"/>
</g>
<rect x="347.2" y="283.3" class="st14" width="357.5" height="357.5"/>
<rect x="359.2" y="266.3" class="st15" width="357.5" height="357.5"/>
<rect x="396.6" y="305.9" class="st11" width="282.6" height="10.7"/>
<rect x="396.6" y="383.4" class="st8" width="179.9" height="10.7"/>
<rect x="396.6" y="455.4" class="st8" width="174.6" height="10.7"/>
<rect x="396.6" y="491.4" class="st8" width="238" height="10.7"/>
<path class="st2" d="M627.5,384.4l-1.2-1.3c-0.1-0.1-0.1-0.1-0.2-0.1c-0.1,0-0.1,0-0.2,0.1l-8.5,8.6l-3.1-3.1
	c-0.1,0-0.1-0.1-0.2-0.1c-0.1,0-0.1,0-0.2,0.1l-1.3,1.3c-0.1,0.1-0.1,0.3,0,0.4c0,0,0,0,0,0l3.9,3.9c0.2,0.2,0.5,0.4,0.8,0.4
	c0.3,0,0.6-0.2,0.8-0.4l0,0l9.3-9.4C627.6,384.7,627.6,384.5,627.5,384.4L627.5,384.4z"/>
<path class="st2" d="M620.1,376.2c7,0,12.6,5.6,12.6,12.6c0,7-5.6,12.6-12.6,12.6c-7,0-12.6-5.6-12.6-12.6c0-3.3,1.3-6.6,3.7-8.9
	C613.5,377.5,616.7,376.2,620.1,376.2 M620.1,374.2c-8,0-14.6,6.5-14.6,14.5c0,8,6.5,14.6,14.5,14.6c8,0,14.6-6.5,14.6-14.5
	c0,0,0,0,0,0C634.6,380.7,628.1,374.3,620.1,374.2L620.1,374.2z"/>
<path class="st2" d="M627.5,456.3l-1.2-1.3c-0.1-0.1-0.1-0.1-0.2-0.1c-0.1,0-0.1,0-0.2,0.1l-8.5,8.6l-3.1-3.1
	c-0.1-0.1-0.1-0.1-0.2-0.1c-0.1,0-0.1,0-0.2,0.1l-1.3,1.2c-0.1,0.1-0.1,0.3,0,0.4c0,0,0,0,0,0l3.9,3.9c0.2,0.2,0.5,0.4,0.8,0.4
	c0.3,0,0.6-0.2,0.8-0.4l0,0l9.3-9.4C627.6,456.6,627.6,456.4,627.5,456.3L627.5,456.3z"/>
<path class="st2" d="M620.1,448.2c7,0,12.6,5.6,12.6,12.6c0,7-5.6,12.6-12.6,12.6c-7,0-12.6-5.6-12.6-12.6c0-3.3,1.3-6.6,3.7-8.9
	C613.5,449.5,616.7,448.2,620.1,448.2 M620.1,446.2c-8,0-14.6,6.5-14.6,14.5c0,8,6.5,14.6,14.5,14.6c8,0,14.6-6.5,14.6-14.5
	c0,0,0,0,0,0C634.6,452.7,628.1,446.2,620.1,446.2C620.1,446.2,620.1,446.2,620.1,446.2z"/>
<ellipse class="st14" cx="512.5" cy="782.4" rx="71.4" ry="12"/>
<path class="st6" d="M130.9,693.4c0,0,3.7,4.9-1.7,12.2s-9.9,13.6-8.1,18.2c0,0,8.2-13.7,14.9-13.8S138.3,701.6,130.9,693.4z"/>
<path class="st8" d="M130.9,693.4c0.3,0.5,0.6,1,0.8,1.5c6.5,7.7,10,14.8,3.7,15c-5.8,0.2-12.9,10.6-14.5,13.3
	c0.1,0.2,0.1,0.4,0.2,0.6c0,0,8.2-13.7,14.9-13.8S138.3,701.6,130.9,693.4z"/>
<path class="st16" d="M137.8,699.6c0,1.7-0.2,3.1-0.4,3.1s-0.4-1.4-0.4-3.1s0.2-0.9,0.5-0.9S137.8,697.9,137.8,699.6z"/>
<path class="st16" d="M140.2,701.6c-1.5,0.8-2.8,1.3-2.9,1.1s1-1,2.5-1.9s0.9-0.2,1,0S141.7,700.8,140.2,701.6z"/>
<path class="st6" d="M111.2,693.4c0,0-3.7,4.9,1.7,12.2s9.9,13.6,8.1,18.2c0,0-8.2-13.7-14.9-13.8S103.9,701.6,111.2,693.4z"/>
<path class="st8" d="M111.2,693.4c-0.3,0.5-0.6,1-0.8,1.5c-6.5,7.7-10,14.8-3.7,15c5.8,0.2,12.9,10.6,14.5,13.3
	c-0.1,0.2-0.1,0.4-0.2,0.6c0,0-8.2-13.7-14.9-13.8S103.9,701.6,111.2,693.4z"/>
<path class="st16" d="M104.3,699.6c0,1.7,0.2,3.1,0.4,3.1s0.4-1.4,0.4-3.1s-0.2-0.9-0.5-0.9S104.3,697.9,104.3,699.6z"/>
<path class="st16" d="M101.9,701.6c1.5,0.8,2.8,1.3,2.9,1.1s-1-1-2.5-1.9s-0.9-0.2-1,0S100.4,700.8,101.9,701.6z"/>
<ellipse class="st14" cx="121.1" cy="755" rx="39" ry="6"/>
<path class="st17" d="M141.1,717.2l-0.2,1.5l-0.3,2.1l-0.1,0.9l-0.3,2.2l-0.1,0.9l-0.3,2.1l-3,24.4c-0.3,2.2-3.8,3.9-8.1,3.9h-15.5
	c-4.3,0-7.9-1.7-8.1-3.9l-3-24.4l-0.3-2.1l-0.1-0.9l-0.3-2.2l-0.1-0.9l-0.3-2.1l-0.2-1.5c-0.1-1.2,1.8-2.3,4.2-2.3h31.7
	C139.3,714.9,141.3,716,141.1,717.2z"/>
<polygon class="st18" points="140.9,718.7 140.7,720.8 101.5,720.8 101.2,718.7 "/>
<polygon class="st18" points="140.6,721.8 140.3,723.9 101.8,723.9 101.6,721.8 "/>
<polygon class="st18" points="140.2,724.8 139.9,726.9 102.2,726.9 101.9,724.8 "/>
<path class="st8" d="M590.8,461.8c-0.7-1.4-6-19-6-19l-10.3-26.1c0,0-6.2-34.3-15.5-25.8s5,29.1,5,29.1s5.9,15,5.6,18s3.3,14,3.3,14
	l-1.2,6.3c-1.5-0.1-2.5-0.1-2.5-0.1s-0.9,1.3-1.8,1.4c-0.1,0-0.3,0-0.4-0.1c-1-0.5-4.3-0.4-6-0.4c-1.6-0.2-3.1-0.7-4.5-1.4
	c-0.6-1.2-3.9-1.9-6.8-2.2c-2.2-5.5-5.3-10.9-5.8-16.6c-0.2-1.6,0.1-3.2,0.9-4.5c0.2-0.3,0.4-0.6,0.7-0.8c0.8-0.8,1.8-1.5,2.7-2.3
	c0.5-0.4,0.9-0.8,1.3-1.2c7.6-7.4,6.4-18.9-0.5-26.8c-8-9.2-44.1-28.9-55-12c-1.5,2.4-1.6,5.1-2,7.7c-1.1,6.4-4.1,12.3-8.6,17
	c-3.6,3.9-8.4,7.4-10.5,11.8l-0.1-0.2c-0.5,0.9-0.9,2-1.1,3c-1,5.3,2.5,10.4,4.4,15.6c0.6,1.8,1.1,3.6,1.4,5.4l0.1-1.1
	c0.5,2.6,0.6,5.3,0.5,8c-13.1,2.7-13.1,25.3-13.1,25.3s-1.6,9-1.3,12.2s0.3,10.2,0.3,11.9s-1.6,12.2-1.8,13.5l0,0
	c-0.2,1.4-2.7,8,3.3,9.5c0.4,0.1,0.8,0.2,1.3,0.3c0.3,5.4,0.7,16.7,0.3,19.2c0,0,2.2,15.2,4,19c1.1,2.3,2.5,4.4,4,6.5
	c-0.1,0.9-0.4,1.8-0.9,2.6c-0.9,1.3-0.4,2.4,1.1,2.9c0,0.5-0.1,1-0.2,1.6c-0.7,5.9-1.6,17.5,0,23.4c2.3,8.1,2.4,10.8,2.4,10.8
	c0,1.3,0.3,2.6,0.9,3.8c1,1.3,2.7,13.9,2.7,15.9s4.6,20.2,3.2,24.5s-0.3,10.4-0.3,10.4s-0.8,10.6-1.8,12.9s-1.3,39.2,0.1,48.8
	s2.4,17.5,2.4,17.5s-1,8.8-0.1,10s2.3,8.5,1.2,8.9s-1.6,3.4-1.6,3.4c0.6,0.9,1.2,1.7,1.8,2.5c-0.4-0.1-0.8-0.3-1.2-0.5
	c0.4,0.6,1.1,1.5,1.8,2.4l-0.7,9.7c-0.1,0.8,0.4,1.5,1.2,1.7c4.8,1.3,10-0.1,13.4-3.8c6.7-6.9,9-5.9,10.2-10.1
	c0.1-0.5,0.2-0.9,0.3-1.3c0.5-2.4-0.9-4.7-3.3-5.2c-1-0.2-2-0.1-2.9,0.3c0.4-3,0.8-6.3,0.4-8.2c-0.7-3.9-0.5-14.1-0.5-14.1l-0.9-49
	c0,0,1.8-9.7,3.8-13.5s1.8-17,1.8-17l2.3-43.4l2.3-21c0,0,2.2-7.3,4.8,0.8c0,0-1.5,16.3-0.8,20.2s1.6,22.9,0.9,27.1
	s-3.6,27.1-1.8,32.9s3.9,12.8,3.5,15.1s-1.8,52-1.8,52s3.6,9.6,0.9,12.7s-0.1,15.5-0.1,15.5s0.3,0.2,0.9,0.6l-0.1,1l-0.8,11.1
	c-0.1,0.8,0.4,1.5,1.2,1.7c4.8,1.3,10-0.1,13.4-3.8c6.7-6.9,9-5.9,10.2-10.1c0.1-0.5,0.2-0.9,0.3-1.3c0.5-2.4-0.9-4.7-3.3-5.2
	c-1.3-0.3-2.7,0-3.8,0.9c0,0-0.1,0.1-0.2,0.1c-0.2,0.2-0.3,0.3-0.5,0.4l-0.3,0.2c0.7-3.1,1.7-8.3,1.2-10.8
	c-0.7-3.6,0.7-14.7,0.7-14.7s3.9-13.2,4-18.5s1.1-42,1.1-42s-0.1-17.1,0.4-21.3s4.8-40.3,9.2-51c3.3-8.3,4.8-29.3,3.9-40
	c0-0.5-0.1-1-0.2-1.5c5.3-4,5.8-10.5,5.8-10.5s-4.8-9.3-9.5-13.3s-5.8-10.8-5.6-13.7c0.1-1.8-0.5-3.5-1.6-4.8c0,0-2.2-7-3.6-7.7
	c-0.1-0.1-0.2-0.1-0.3-0.2c-1-1.1-0.2-4.1-0.2-4.1v-0.1c0.2-0.7,1.2-5.2,0.9-6.4s0.2-7.2,0.2-7.2s3.4-10.2,2.9-18.3s7-7.4,7-7.4
	l23.3-0.2h2.7c1.1-1,2.1-2,3-3.2c1.8,0.3,3.7-0.1,5.2-1.3C592.1,471.8,591.5,463.2,590.8,461.8z M482.5,531.8l0.2-4.1l0.9,0.8
	c0.3,1.1,0.3,2.2,0,3.3c-0.3,1-1,1.9-2,2.3c-0.1,0.1-0.2,0.1-0.3,0.2l-0.2-2.3C482,531.8,482.5,531.8,482.5,531.8L482.5,531.8z"/>
<linearGradient id="SVGID_1_" gradientUnits="userSpaceOnUse" x1="643.3743" y1="266.004" x2="643.3743" y2="354.7608" gradientTransform="matrix(1 0 0 -1 -69 741.07)">
	<stop  offset="0" style="stop-color:#808080;stop-opacity:0.25"/>
	<stop  offset="0.54" style="stop-color:#808080;stop-opacity:0.12"/>
	<stop  offset="1" style="stop-color:#808080;stop-opacity:0.1"/>
</linearGradient>
<path class="st19" d="M569.9,469.7c0,0,13.3,8.5,18.3,4s4.4-13.3,3.7-14.6s-6.1-19.1-6.1-19.1l-10.4-26.3c0,0-6.3-34.6-15.8-26
	s5.1,29.3,5.1,29.3s6,15.1,5.7,18.2s3.3,14.1,3.3,14.1L569.9,469.7z"/>
<linearGradient id="SVGID_2_" gradientUnits="userSpaceOnUse" x1="601.4326" y1="-52.6451" x2="601.4326" y2="-31.4524" gradientTransform="matrix(1 0 0 -1 -69 741.07)">
	<stop  offset="0" style="stop-color:#808080;stop-opacity:0.25"/>
	<stop  offset="0.54" style="stop-color:#808080;stop-opacity:0.12"/>
	<stop  offset="1" style="stop-color:#808080;stop-opacity:0.1"/>
</linearGradient>
<path class="st20" d="M545.2,777.9c-0.1,0.4-0.2,0.9-0.3,1.3c-1.2,4.2-3.6,3.3-10.4,10.2c-3.5,3.7-8.7,5.2-13.6,3.8
	c-0.8-0.2-1.3-0.9-1.2-1.7l0.9-11.2l0.4-5.4c0,0,10.9,3.1,16.4-0.8c0.2-0.1,0.4-0.3,0.5-0.4l0.2-0.1c1.9-1.6,4.7-1.3,6.3,0.6
	C545.1,775.2,545.5,776.6,545.2,777.9z"/>
<linearGradient id="SVGID_3_" gradientUnits="userSpaceOnUse" x1="567.2687" y1="-48.4082" x2="567.2687" y2="-27.2064" gradientTransform="matrix(1 0 0 -1 -69 741.07)">
	<stop  offset="0" style="stop-color:#808080;stop-opacity:0.25"/>
	<stop  offset="0.54" style="stop-color:#808080;stop-opacity:0.12"/>
	<stop  offset="1" style="stop-color:#808080;stop-opacity:0.1"/>
</linearGradient>
<path class="st21" d="M511,773.7c-0.1,0.4-0.2,0.9-0.3,1.3c-1.2,4.2-3.6,3.3-10.4,10.2c-3.5,3.7-8.7,5.2-13.6,3.8
	c-0.8-0.2-1.3-0.9-1.2-1.7l0.8-11.2l0.4-5.4c0,0,10.9,3.1,16.4-0.8c0.2-0.1,0.4-0.3,0.5-0.4l0.2-0.1c1.9-1.6,4.7-1.3,6.3,0.6
	C511,770.9,511.3,772.3,511,773.7z"/>
<g class="st22">
	
		<linearGradient id="SVGID_4_" gradientUnits="userSpaceOnUse" x1="561.22" y1="-42.2208" x2="561.22" y2="-34.06" gradientTransform="matrix(1 0 0 -1 -69 741.07)">
		<stop  offset="0" style="stop-color:#808080;stop-opacity:0.25"/>
		<stop  offset="0.54" style="stop-color:#808080;stop-opacity:0.12"/>
		<stop  offset="1" style="stop-color:#808080;stop-opacity:0.1"/>
	</linearGradient>
	<path class="st23" d="M499.7,775.4l0.5,5.8c-6.3,6.2-13.7-3-15.9-6.1C490,778.1,499.7,775.4,499.7,775.4z"/>
</g>
<g class="st22">
	
		<linearGradient id="SVGID_5_" gradientUnits="userSpaceOnUse" x1="597.8849" y1="-41.487" x2="597.8849" y2="-33" gradientTransform="matrix(1 0 0 -1 -69 741.07)">
		<stop  offset="0" style="stop-color:#808080;stop-opacity:0.25"/>
		<stop  offset="0.54" style="stop-color:#808080;stop-opacity:0.12"/>
		<stop  offset="1" style="stop-color:#808080;stop-opacity:0.1"/>
	</linearGradient>
	<path class="st24" d="M536.5,777.7l0.8-0.5c-5.7,8.6-14.2,4.6-16.8,3.1l0.4-5.4c0,0,10.9,3.1,16.4-0.8
		C536.9,776.2,536.5,777.7,536.5,777.7z"/>
</g>
<linearGradient id="SVGID_6_" gradientUnits="userSpaceOnUse" x1="584.6525" y1="-41.1857" x2="584.6525" y2="173.2916" gradientTransform="matrix(1 0 0 -1 -69 741.07)">
	<stop  offset="0" style="stop-color:#808080;stop-opacity:0.25"/>
	<stop  offset="0.54" style="stop-color:#808080;stop-opacity:0.12"/>
	<stop  offset="1" style="stop-color:#808080;stop-opacity:0.1"/>
</linearGradient>
<path class="st25" d="M553.9,614.7c-4.4,10.9-8.8,47.3-9.3,51.5s-0.4,21.5-0.4,21.5l-1.1,42.4c-0.1,5.3-4.1,18.6-4.1,18.6
	s-1.4,11.1-0.7,14.8s-1.8,13.3-1.8,13.3l0.8-0.5c-6.8,10.3-17.7,2.6-17.7,2.6s-2.6-12.5,0.1-15.6s-1-12.8-1-12.8s1.4-50.1,1.8-52.4
	s-1.6-9.4-3.6-15.2s1.1-28.9,1.8-33.1s-0.3-23.3-1-27.3s0.8-20.4,0.8-20.4c-2.7-8.1-4.9-0.8-4.9-0.8l-2.2,21.3l-2.3,43.8
	c0,0,0.3,13.3-1.8,17.1s-3.8,13.6-3.8,13.6l1,49.4c0,0-0.1,10.3,0.5,14.3s-1.5,14.1-1.5,14.1c-7.7,17.9-20-1.5-20-1.5s0.5-3,1.6-3.4
	s-0.4-7.7-1.2-9s0.1-10,0.1-10s-1-8-2.5-17.7s-1.1-46.8-0.1-49.2s1.8-13,1.8-13s-1.1-6.1,0.3-10.5s-3.3-22.7-3.3-24.7
	s-1.8-14.7-2.7-16c-0.6-1.2-1-2.5-1-3.8c0,0-0.1-2.7-2.5-10.9c-1.7-6-0.7-17.7,0-23.6c0.2-2.2,0.4-3.6,0.4-3.6s78.6-12.6,81.7-9.8
	c0.7,0.7,1.2,3,1.5,6.3C558.7,585.1,557.2,606.3,553.9,614.7z"/>
<g class="st22">
	
		<linearGradient id="SVGID_7_" gradientUnits="userSpaceOnUse" x1="599.4869" y1="65" x2="599.4869" y2="65.57" gradientTransform="matrix(1 0 0 -1 -69 741.07)">
		<stop  offset="0" style="stop-color:#808080;stop-opacity:0.25"/>
		<stop  offset="0.54" style="stop-color:#808080;stop-opacity:0.12"/>
		<stop  offset="1" style="stop-color:#808080;stop-opacity:0.1"/>
	</linearGradient>
	<path class="st26" d="M524.2,675.7c0.4,0,9,0.7,12.2,0.1S524.2,675.7,524.2,675.7z"/>
</g>
<g class="st22">
	
		<linearGradient id="SVGID_8_" gradientUnits="userSpaceOnUse" x1="600.0999" y1="58.9691" x2="600.0999" y2="60.2791" gradientTransform="matrix(1 0 0 -1 -69 741.07)">
		<stop  offset="0" style="stop-color:#808080;stop-opacity:0.25"/>
		<stop  offset="0.54" style="stop-color:#808080;stop-opacity:0.12"/>
		<stop  offset="1" style="stop-color:#808080;stop-opacity:0.1"/>
	</linearGradient>
	<path class="st27" d="M524.8,680.8c0,0,12,2.1,12.6,1S524.8,680.8,524.8,680.8z"/>
</g>
<g class="st22">
	
		<linearGradient id="SVGID_9_" gradientUnits="userSpaceOnUse" x1="562.2712" y1="60.24" x2="562.2712" y2="62.45" gradientTransform="matrix(1 0 0 -1 -69 741.07)">
		<stop  offset="0" style="stop-color:#808080;stop-opacity:0.25"/>
		<stop  offset="0.54" style="stop-color:#808080;stop-opacity:0.12"/>
		<stop  offset="1" style="stop-color:#808080;stop-opacity:0.1"/>
	</linearGradient>
	<path class="st28" d="M488.2,678.6c0,0,6.2,0.3,9.6,1.8S488.2,678.6,488.2,678.6z"/>
</g>
<linearGradient id="SVGID_10_" gradientUnits="userSpaceOnUse" x1="542.455" y1="164.47" x2="542.455" y2="214.89" gradientTransform="matrix(1 0 0 -1 -69 741.07)">
	<stop  offset="0" style="stop-color:#808080;stop-opacity:0.25"/>
	<stop  offset="0.54" style="stop-color:#808080;stop-opacity:0.12"/>
	<stop  offset="1" style="stop-color:#808080;stop-opacity:0.1"/>
</linearGradient>
<path class="st29" d="M465.7,526.4c0,0,1,18.9,0.5,22.3c0,0,2.2,15.3,4,19.2c1.6,3.1,3.6,6,5.8,8.8l5.4-37.6l-1.3-12.9L465.7,526.4z
	"/>
<linearGradient id="SVGID_11_" gradientUnits="userSpaceOnUse" x1="522.24" y1="353.7" x2="522.24" y2="395.52" gradientTransform="matrix(1 0 0 -1 0 793.89)">
	<stop  offset="0" style="stop-color:#808080;stop-opacity:0.25"/>
	<stop  offset="0.54" style="stop-color:#808080;stop-opacity:0.12"/>
	<stop  offset="1" style="stop-color:#808080;stop-opacity:0.1"/>
</linearGradient>
<ellipse class="st30" cx="522.2" cy="419.3" rx="21.1" ry="20.9"/>
<linearGradient id="SVGID_12_" gradientUnits="userSpaceOnUse" x1="587.1285" y1="280.51" x2="587.1285" y2="312.7177" gradientTransform="matrix(1 0 0 -1 -69 741.07)">
	<stop  offset="0" style="stop-color:#808080;stop-opacity:0.25"/>
	<stop  offset="0.54" style="stop-color:#808080;stop-opacity:0.12"/>
	<stop  offset="1" style="stop-color:#808080;stop-opacity:0.1"/>
</linearGradient>
<path class="st31" d="M511.3,429.1c0,0-6.6,12.8-13.1,18.7s39.4,12.8,40.5,12.8s-8.2-27.1-6.6-30.4S511.3,429.1,511.3,429.1z"/>
<g class="st22">
	
		<linearGradient id="SVGID_13_" gradientUnits="userSpaceOnUse" x1="584.995" y1="158.44" x2="584.995" y2="173.3866" gradientTransform="matrix(1 0 0 -1 -69 741.07)">
		<stop  offset="0" style="stop-color:#808080;stop-opacity:0.25"/>
		<stop  offset="0.54" style="stop-color:#808080;stop-opacity:0.12"/>
		<stop  offset="1" style="stop-color:#808080;stop-opacity:0.1"/>
	</linearGradient>
	<path class="st32" d="M557.8,574.4c-1,0.8-2.2,1.4-3.4,1.9c-8.4,3.3-17.5,7.8-23.7,6s-19.3,0-19.3,0s-26.5-2.2-31.8-0.9
		c-1.8,0.5-3.7,0.6-5.5,0.1c0.2-2.2,0.4-3.6,0.4-3.6s78.6-12.6,81.7-9.8C557.1,568.8,557.5,571.1,557.8,574.4z"/>
</g>
<linearGradient id="SVGID_14_" gradientUnits="userSpaceOnUse" x1="582.865" y1="160.0518" x2="582.865" y2="297.1299" gradientTransform="matrix(1 0 0 -1 -69 741.07)">
	<stop  offset="0" style="stop-color:#808080;stop-opacity:0.25"/>
	<stop  offset="0.54" style="stop-color:#808080;stop-opacity:0.12"/>
	<stop  offset="1" style="stop-color:#808080;stop-opacity:0.1"/>
</linearGradient>
<path class="st33" d="M563.6,562.3c0,0-0.7,9-9.1,12.3s-17.5,7.8-23.7,6s-19.3,0-19.3,0s-26.5-2.2-31.8-0.9s-8-0.4-6.4-2.7
	s1.5-10.1,1.5-13.4s-1.8-16.5-0.2-18.8s3.1-11.4,6.4-12.8c1-0.4,1.8-1.3,2-2.3c0.3-1.1,0.3-2.2,0-3.3c0,0-0.5-0.5-1.3-1.1
	c-1.9-1.7-5.2-4.9-4.2-5.9c1.5-1.5,0-10.9,0-10.9s-3.5-7.2-2.2-10s-11.1-17-11.1-17s0-24.6,15-25.7c0,0,10.6,0.4,11.9-4.3
	s9.7-7.4,9.7-7.4l19.2,4.2c0,0,17,3.6,20.1,1.5s5.5,2.9,5.5,2.9s10.6,0.5,11.7,2.7s-3.5,23.3-3.5,23.3s-7.7-0.7-7.1,7.4
	s-2.9,18.5-2.9,18.5s-0.5,6-0.2,7.2s-0.7,5.7-0.9,6.4v0.1c0,0-0.8,3,0.2,4.1c0.1,0.1,0.2,0.2,0.3,0.2c1.5,0.7,3.7,7.8,3.7,7.8
	c1.1,1.4,1.7,3.1,1.7,4.9c-0.2,2.9,0.9,9.8,5.7,13.8S563.6,562.3,563.6,562.3z"/>
<linearGradient id="SVGID_15_" gradientUnits="userSpaceOnUse" x1="540.3112" y1="211.1786" x2="540.3112" y2="261.1386" gradientTransform="matrix(1 0 0 -1 -69 741.07)">
	<stop  offset="0" style="stop-color:#808080;stop-opacity:0.25"/>
	<stop  offset="0.54" style="stop-color:#808080;stop-opacity:0.12"/>
	<stop  offset="1" style="stop-color:#808080;stop-opacity:0.1"/>
</linearGradient>
<path class="st34" d="M482.2,520.4v0.8l-0.3,8.5c0,0-11.2,0.9-17.3-0.6s-3.5-8.2-3.3-9.6l0,0c0.2-1.3,1.8-11.9,1.8-13.6
	s0-8.8-0.3-12s1.4-12.3,1.4-12.3l1.2-1.5l12.9,4.9L482.2,520.4z"/>
<g class="st22">
	
		<linearGradient id="SVGID_16_" gradientUnits="userSpaceOnUse" x1="540.2913" y1="211.18" x2="540.2913" y2="221.7114" gradientTransform="matrix(1 0 0 -1 -69 741.07)">
		<stop  offset="0" style="stop-color:#808080;stop-opacity:0.25"/>
		<stop  offset="0.54" style="stop-color:#808080;stop-opacity:0.12"/>
		<stop  offset="1" style="stop-color:#808080;stop-opacity:0.1"/>
	</linearGradient>
	<path class="st35" d="M482.2,521.2l-0.3,8.5c0,0-11.2,0.9-17.3-0.6s-3.5-8.2-3.3-9.6L482.2,521.2z"/>
</g>
<g class="st22">
	
		<linearGradient id="SVGID_17_" gradientUnits="userSpaceOnUse" x1="581.215" y1="211.48" x2="581.215" y2="223.03" gradientTransform="matrix(1 0 0 -1 -69 741.07)">
		<stop  offset="0" style="stop-color:#808080;stop-opacity:0.25"/>
		<stop  offset="0.54" style="stop-color:#808080;stop-opacity:0.12"/>
		<stop  offset="1" style="stop-color:#808080;stop-opacity:0.1"/>
	</linearGradient>
	<path class="st36" d="M483,529.6c0.3-1.1,0.3-2.2,0-3.3c0,0-0.5-0.5-1.3-1.1c9.7-1.3,47.9-6.5,60.8-7.1v0.1c0,0-0.8,3,0.2,4.1
		L483,529.6z"/>
</g>
<g class="st22">
	
		<linearGradient id="SVGID_18_" gradientUnits="userSpaceOnUse" x1="609.7742" y1="186.91" x2="609.7742" y2="204.93" gradientTransform="matrix(1 0 0 -1 -69 741.07)">
		<stop  offset="0" style="stop-color:#808080;stop-opacity:0.25"/>
		<stop  offset="0.54" style="stop-color:#808080;stop-opacity:0.12"/>
		<stop  offset="1" style="stop-color:#808080;stop-opacity:0.1"/>
	</linearGradient>
	<path class="st37" d="M543.9,536.2c0,0,2.4,13.3-6.5,18C537.4,554.2,542.4,547.5,543.9,536.2z"/>
</g>
<g class="st22">
	
		<linearGradient id="SVGID_19_" gradientUnits="userSpaceOnUse" x1="567.8981" y1="185.8705" x2="567.8981" y2="188.4324" gradientTransform="matrix(1 0 0 -1 -69 741.07)">
		<stop  offset="0" style="stop-color:#808080;stop-opacity:0.25"/>
		<stop  offset="0.54" style="stop-color:#808080;stop-opacity:0.12"/>
		<stop  offset="1" style="stop-color:#808080;stop-opacity:0.1"/>
	</linearGradient>
	<path class="st38" d="M485.9,554.5c0,0,21.3-3.6,25.5-0.8S485.9,554.5,485.9,554.5z"/>
</g>
<g class="st22">
	
		<linearGradient id="SVGID_20_" gradientUnits="userSpaceOnUse" x1="604.8703" y1="252.2109" x2="604.8703" y2="269.01" gradientTransform="matrix(1 0 0 -1 -69 741.07)">
		<stop  offset="0" style="stop-color:#808080;stop-opacity:0.25"/>
		<stop  offset="0.54" style="stop-color:#808080;stop-opacity:0.12"/>
		<stop  offset="1" style="stop-color:#808080;stop-opacity:0.1"/>
	</linearGradient>
	<path class="st39" d="M536.5,472.1c0,0-3.3,13.4-0.8,16.5S536.5,472.1,536.5,472.1z"/>
</g>
<g class="st22">
	
		<linearGradient id="SVGID_21_" gradientUnits="userSpaceOnUse" x1="544.434" y1="268.76" x2="544.434" y2="279.97" gradientTransform="matrix(1 0 0 -1 -69 741.07)">
		<stop  offset="0" style="stop-color:#808080;stop-opacity:0.25"/>
		<stop  offset="0.54" style="stop-color:#808080;stop-opacity:0.12"/>
		<stop  offset="1" style="stop-color:#808080;stop-opacity:0.1"/>
	</linearGradient>
	<path class="st40" d="M474.6,461.1c0,0,3,5,1.2,10.1S474.6,461.1,474.6,461.1z"/>
</g>
<linearGradient id="SVGID_22_" gradientUnits="userSpaceOnUse" x1="538.8059" y1="229.7424" x2="538.8059" y2="236.34" gradientTransform="matrix(1 0 0 -1 -69 741.07)">
	<stop  offset="0" style="stop-color:#808080;stop-opacity:0.25"/>
	<stop  offset="0.54" style="stop-color:#808080;stop-opacity:0.12"/>
	<stop  offset="1" style="stop-color:#808080;stop-opacity:0.1"/>
</linearGradient>
<path class="st41" d="M468.4,504.7c0,0,3.8,2.3,2.5,5.8S468.4,504.7,468.4,504.7z"/>
<g class="st22">
	
		<linearGradient id="SVGID_23_" gradientUnits="userSpaceOnUse" x1="539.0153" y1="241.3246" x2="539.0153" y2="246.66" gradientTransform="matrix(1 0 0 -1 -69 741.07)">
		<stop  offset="0" style="stop-color:#808080;stop-opacity:0.25"/>
		<stop  offset="0.54" style="stop-color:#808080;stop-opacity:0.12"/>
		<stop  offset="1" style="stop-color:#808080;stop-opacity:0.1"/>
	</linearGradient>
	<path class="st42" d="M468,494.4c0,0,3.6,1.9,4,4.7S468,494.4,468,494.4z"/>
</g>
<g class="st22">
	
		<linearGradient id="SVGID_24_" gradientUnits="userSpaceOnUse" x1="603.1951" y1="137.91" x2="603.1951" y2="141.38" gradientTransform="matrix(1 0 0 -1 -69 741.07)">
		<stop  offset="0" style="stop-color:#808080;stop-opacity:0.25"/>
		<stop  offset="0.54" style="stop-color:#808080;stop-opacity:0.12"/>
		<stop  offset="1" style="stop-color:#808080;stop-opacity:0.1"/>
	</linearGradient>
	<path class="st43" d="M520.8,602.7c0,0,22.4,2.3,26.8-3C547.6,599.7,527.4,603.7,520.8,602.7z"/>
</g>
<g class="st22">
	
		<linearGradient id="SVGID_25_" gradientUnits="userSpaceOnUse" x1="565.55" y1="136.7802" x2="565.55" y2="139.66" gradientTransform="matrix(1 0 0 -1 -69 741.07)">
		<stop  offset="0" style="stop-color:#808080;stop-opacity:0.25"/>
		<stop  offset="0.54" style="stop-color:#808080;stop-opacity:0.12"/>
		<stop  offset="1" style="stop-color:#808080;stop-opacity:0.1"/>
	</linearGradient>
	<path class="st44" d="M482.2,601.4c0,0,24,5.6,28.7,1.2C510.9,602.6,490.3,604.1,482.2,601.4z"/>
</g>
<g class="st22">
	
		<linearGradient id="SVGID_26_" gradientUnits="userSpaceOnUse" x1="599.221" y1="130.72" x2="599.221" y2="131.06" gradientTransform="matrix(1 0 0 -1 -69 741.07)">
		<stop  offset="0" style="stop-color:#808080;stop-opacity:0.25"/>
		<stop  offset="0.54" style="stop-color:#808080;stop-opacity:0.12"/>
		<stop  offset="1" style="stop-color:#808080;stop-opacity:0.1"/>
	</linearGradient>
	<path class="st45" d="M522.5,610c0,0,10,0,14.7,0.3S522.5,610,522.5,610z"/>
</g>
<g class="st22">
	
		<linearGradient id="SVGID_27_" gradientUnits="userSpaceOnUse" x1="558.6503" y1="122.1611" x2="558.6503" y2="126.81" gradientTransform="matrix(1 0 0 -1 -69 741.07)">
		<stop  offset="0" style="stop-color:#808080;stop-opacity:0.25"/>
		<stop  offset="0.54" style="stop-color:#808080;stop-opacity:0.12"/>
		<stop  offset="1" style="stop-color:#808080;stop-opacity:0.1"/>
	</linearGradient>
	<path class="st46" d="M483.8,614.3c0,0,4.9,5.5,10.5,4.5S483.8,614.3,483.8,614.3z"/>
</g>
<linearGradient id="SVGID_28_" gradientUnits="userSpaceOnUse" x1="582.1038" y1="209.2912" x2="582.1038" y2="359.5787" gradientTransform="matrix(1 0 0 -1 -69 741.07)">
	<stop  offset="0" style="stop-color:#808080;stop-opacity:0.25"/>
	<stop  offset="0.54" style="stop-color:#808080;stop-opacity:0.12"/>
	<stop  offset="1" style="stop-color:#808080;stop-opacity:0.1"/>
</linearGradient>
<path class="st47" d="M493.5,388.2c-1.5,2.4-1.6,5.1-2,7.8c-1.1,6.5-4.2,12.5-8.8,17.2c-4.4,4.6-10.4,8.8-11.5,14.4
	c-1.1,5.4,2.6,10.5,4.5,15.7c5,13.8-2,28.2-4,42.3c-0.6,3.9,0.1,8.9,5,10.2c1.5,0.4,3.3,0.4,4.6,1c1.8,0.9,2.4,2.7,2.7,4.3
	c1.2,5.8,1.6,11.8,1.3,17.7c-0.2,3.3-0.5,7.2,2.7,9.5c1.6,1,3.4,1.7,5.3,2.1c5,1.3,11.5,2.4,14.8-0.7c1.4-1.3,2-3.2,3.7-4.2
	c2.6-1.5,6.4-0.5,9.7-0.3c6.4,0.3,12.5-2.9,15.8-8.4c2.7-4.8,2.5-10.3,1.5-15.5s-2.7-10.3-2.8-15.5c-0.2-1.8,0.3-3.7,1.2-5.3
	c2-3.1,6.8-4.5,10-7c6.1-4.6,6-12.1,3.8-18.5s-6.2-12.3-6.7-18.9c-0.2-1.6,0.1-3.2,0.9-4.6c1.1-1.3,2.3-2.5,3.7-3.4
	c8.8-7.4,7.8-19.6,0.5-27.9C541.2,391,504.5,371.1,493.5,388.2z"/>
<g class="st22">
	
		<linearGradient id="SVGID_29_" gradientUnits="userSpaceOnUse" x1="542.9987" y1="292.08" x2="542.9987" y2="316.28" gradientTransform="matrix(1 0 0 -1 -69 741.07)">
		<stop  offset="0" style="stop-color:#808080;stop-opacity:0.25"/>
		<stop  offset="0.54" style="stop-color:#808080;stop-opacity:0.12"/>
		<stop  offset="1" style="stop-color:#808080;stop-opacity:0.1"/>
	</linearGradient>
	<path class="st48" d="M476.8,449c0.9-5.5,0.4-11.1-1.4-16.3c-1-2.6-2.4-5.3-3.4-7.9c-0.5,0.9-0.9,2-1.1,3
		c-1.1,5.4,2.6,10.5,4.5,15.7C476.1,445.3,476.5,447.1,476.8,449z"/>
	
		<linearGradient id="SVGID_30_" gradientUnits="userSpaceOnUse" x1="547.1855" y1="231.46" x2="547.1855" y2="259.32" gradientTransform="matrix(1 0 0 -1 -69 741.07)">
		<stop  offset="0" style="stop-color:#808080;stop-opacity:0.25"/>
		<stop  offset="0.54" style="stop-color:#808080;stop-opacity:0.12"/>
		<stop  offset="1" style="stop-color:#808080;stop-opacity:0.1"/>
	</linearGradient>
	<path class="st49" d="M485,508.3c0.4-5.9,0-11.9-1.3-17.7c-0.3-1.6-0.9-3.4-2.7-4.3c-1.4-0.7-3.1-0.6-4.6-1
		c-1.9-0.5-3.5-1.7-4.3-3.5c-0.3,1.4-0.5,2.8-0.7,4.1c-0.6,3.9,0.1,8.9,5,10.2c1.5,0.4,3.3,0.4,4.6,1c1.8,0.9,2.4,2.7,2.7,4.3
		c0.6,2.7,1,5.4,1.2,8.2C484.9,509.2,485,508.7,485,508.3z"/>
	
		<linearGradient id="SVGID_31_" gradientUnits="userSpaceOnUse" x1="581.002" y1="209.06" x2="581.002" y2="238.9323" gradientTransform="matrix(1 0 0 -1 -69 741.07)">
		<stop  offset="0" style="stop-color:#808080;stop-opacity:0.25"/>
		<stop  offset="0.54" style="stop-color:#808080;stop-opacity:0.12"/>
		<stop  offset="1" style="stop-color:#808080;stop-opacity:0.1"/>
	</linearGradient>
	<path class="st50" d="M537,506.2c-3.3,5.5-9.4,8.7-15.8,8.4c-3.3-0.2-7.1-1.2-9.7,0.3c-1.8,1-2.3,2.9-3.7,4.2
		c-3.4,3.1-9.8,2.1-14.8,0.7c-1.9-0.4-3.6-1.1-5.3-2.1c-1.4-1-2.3-2.5-2.6-4.2c0,1.9,0,3.7-0.1,5.6c-0.2,3.3-0.5,7.2,2.7,9.5
		c1.6,1,3.4,1.7,5.3,2.1c5,1.3,11.5,2.4,14.8-0.7c1.4-1.3,2-3.2,3.7-4.2c2.6-1.6,6.4-0.5,9.7-0.3c6.4,0.3,12.5-3,15.8-8.4
		c2.6-4.6,2.5-9.9,1.6-14.9C538.2,503.6,537.7,504.9,537,506.2z"/>
	
		<linearGradient id="SVGID_32_" gradientUnits="userSpaceOnUse" x1="618.4209" y1="309.7" x2="618.4209" y2="331.54" gradientTransform="matrix(1 0 0 -1 -69 741.07)">
		<stop  offset="0" style="stop-color:#808080;stop-opacity:0.25"/>
		<stop  offset="0.54" style="stop-color:#808080;stop-opacity:0.12"/>
		<stop  offset="1" style="stop-color:#808080;stop-opacity:0.1"/>
	</linearGradient>
	<path class="st51" d="M548.6,417.6c-1.4,1-2.6,2.1-3.7,3.4c-0.8,1.4-1.1,3-0.9,4.6c0.2,2,0.6,3.9,1.3,5.8c1-1.1,2.1-2.1,3.3-2.9
		c6-5,7.4-12.2,5.5-18.9C553.1,412.7,551.2,415.5,548.6,417.6z"/>
	
		<linearGradient id="SVGID_33_" gradientUnits="userSpaceOnUse" x1="612.808" y1="259.63" x2="612.808" y2="284.12" gradientTransform="matrix(1 0 0 -1 -69 741.07)">
		<stop  offset="0" style="stop-color:#808080;stop-opacity:0.25"/>
		<stop  offset="0.54" style="stop-color:#808080;stop-opacity:0.12"/>
		<stop  offset="1" style="stop-color:#808080;stop-opacity:0.1"/>
	</linearGradient>
	<path class="st52" d="M546.8,462.9c-3.2,2.5-8,3.9-10,7c-0.9,1.6-1.3,3.4-1.2,5.3c0.1,2.1,0.3,4.2,0.8,6.3c0.1-0.2,0.3-0.5,0.4-0.7
		c2-3.1,6.8-4.5,10-7c5.5-4.2,6-10.8,4.4-16.8C550.3,459.3,548.8,461.4,546.8,462.9z"/>
</g>
<linearGradient id="SVGID_34_" gradientUnits="userSpaceOnUse" x1="638.8567" y1="262.59" x2="638.8567" y2="286.01" gradientTransform="matrix(1 0 0 -1 -69 741.07)">
	<stop  offset="0" style="stop-color:#808080;stop-opacity:0.25"/>
	<stop  offset="0.54" style="stop-color:#808080;stop-opacity:0.12"/>
	<stop  offset="1" style="stop-color:#808080;stop-opacity:0.1"/>
</linearGradient>
<path class="st53" d="M588.5,465.1c-3.7,9.4-8.6,13.1-8.6,13.1h-2.7l-23.7,0.2l-2.7-7.4l3.8-16l2.4,0.2c1.4,0.7,3,1.2,4.6,1.5
	c1.7,0,5.1-0.1,6.1,0.4c0.1,0.1,0.3,0.1,0.5,0.1c0.9-0.1,1.8-1.4,1.8-1.4S592.2,455.7,588.5,465.1z"/>
<g class="st22">
	
		<linearGradient id="SVGID_35_" gradientUnits="userSpaceOnUse" x1="647.5218" y1="262.83" x2="647.5218" y2="285.4901" gradientTransform="matrix(1 0 0 -1 -69 741.07)">
		<stop  offset="0" style="stop-color:#808080;stop-opacity:0.25"/>
		<stop  offset="0.54" style="stop-color:#808080;stop-opacity:0.12"/>
		<stop  offset="1" style="stop-color:#808080;stop-opacity:0.1"/>
	</linearGradient>
	<path class="st54" d="M588.5,465.1c-3.7,9.4-8.6,13.1-8.6,13.1h-2.7c1.4-3.7,4.4-11.4,5.5-13.2s-8.8-5.8-14.6-8.1
		c0.9-0.1,1.8-1.4,1.8-1.4S592.2,455.7,588.5,465.1z"/>
</g>
<path class="st55" d="M569.2,472.4c0,0,13,8.5,18,3.9s4.3-13.2,3.7-14.5s-6-19-6-19l-10.3-26.1c0,0-6.2-34.3-15.5-25.8
	s5,29.1,5,29.1s5.9,15,5.6,18s3.3,14,3.3,14L569.2,472.4z"/>
<path class="st6" d="M544.9,778c-0.1,0.4-0.2,0.9-0.3,1.3c-1.2,4.2-3.5,3.2-10.2,10.1c-3.4,3.6-8.6,5.1-13.4,3.8
	c-0.8-0.2-1.3-0.9-1.2-1.7l0.8-11.1l0.4-5.4c0,0,10.7,3,16.2-0.8c0.2-0.1,0.4-0.3,0.5-0.4c0.1,0,0.1-0.1,0.2-0.1
	c1.9-1.5,4.6-1.3,6.2,0.6C544.8,775.3,545.2,776.7,544.9,778z"/>
<path class="st6" d="M511.2,773.8c-0.1,0.4-0.2,0.8-0.3,1.3c-1.2,4.2-3.5,3.2-10.2,10.1c-3.4,3.7-8.6,5.1-13.4,3.8
	c-0.8-0.2-1.3-0.9-1.2-1.7l0.8-11.1l0.4-5.4c0,0,10.7,3,16.2-0.8c0.2-0.1,0.4-0.3,0.5-0.4l0.2-0.1c1.9-1.5,4.6-1.3,6.2,0.6
	C511.2,771.1,511.5,772.5,511.2,773.8z"/>
<path class="st8" d="M500.2,775.5l0.4,5.8c-6.2,6.1-13.5-3-15.6-6C490.6,778.2,500.2,775.5,500.2,775.5z"/>
<path class="st8" d="M536.3,777.9l0.8-0.5c-5.6,8.5-14,4.6-16.6,3.1l0.4-5.4c0,0,10.7,3,16.2-0.8
	C536.7,776.3,536.3,777.9,536.3,777.9z"/>
<path class="st56" d="M553.4,616.2c-4.3,10.8-8.6,46.9-9.2,51s-0.4,21.3-0.4,21.3l-1.1,42c-0.1,5.3-4,18.5-4,18.5s-1.3,11-0.7,14.7
	s-1.8,13.2-1.8,13.2l0.8-0.5c-6.7,10.2-17.4,2.6-17.4,2.6s-2.6-12.4,0.1-15.5s-0.9-12.7-0.9-12.7s1.3-49.7,1.8-52s-1.6-9.3-3.5-15.1
	s1.1-28.7,1.8-32.9s-0.3-23.2-0.9-27.1s0.8-20.2,0.8-20.2c-2.7-8.1-4.8-0.8-4.8-0.8l-2.2,21.1l-2.3,43.4c0,0,0.3,13.2-1.8,17
	s-3.8,13.4-3.8,13.4l0.9,49c0,0-0.1,10.2,0.5,14.1s-1.5,14-1.5,14c-7.5,17.8-19.7-1.5-19.7-1.5s0.5-3,1.6-3.4s-0.4-7.7-1.2-8.9
	s0.1-10,0.1-10s-1-8-2.4-17.5s-1.1-46.5-0.1-48.8s1.8-12.9,1.8-12.9s-1.1-6.1,0.3-10.4s-3.2-22.5-3.2-24.5s-1.8-14.5-2.7-15.9
	c-0.6-1.2-0.9-2.5-0.9-3.8c0,0-0.1-2.7-2.4-10.8c-1.7-5.9-0.7-17.5,0-23.4c0.2-2.2,0.4-3.5,0.4-3.5s77.3-12.5,80.4-9.7
	c0.7,0.7,1.2,3,1.5,6.2C558.2,586.8,556.7,607.9,553.4,616.2z"/>
<path class="st8" d="M524.2,676.7c0.4,0,8.9,0.7,12,0.1S524.2,676.7,524.2,676.7z"/>
<path class="st8" d="M524.8,681.7c0,0,11.8,2.1,12.4,1S524.8,681.7,524.8,681.7z"/>
<path class="st8" d="M488.8,679.6c0,0,6.1,0.3,9.4,1.8S488.8,679.6,488.8,679.6z"/>
<path class="st55" d="M466.6,528.5c0,0,1,18.8,0.5,22.1c0,0,2.2,15.2,4,19c1.6,3.1,3.5,6,5.7,8.7l5.3-37.2l-1.3-12.8L466.6,528.5z"
	/>
<circle class="st55" cx="522.3" cy="422.3" r="20.7"/>
<path class="st55" d="M511.5,432c0,0-6.5,12.6-12.9,18.6s38.8,12.7,39.9,12.7s-8.1-26.9-6.5-30.2S511.5,432,511.5,432z"/>
<path class="st8" d="M557.3,576.2c-1,0.8-2.1,1.4-3.3,1.9c-8.3,3.2-17.2,7.7-23.3,5.9s-19,0-19,0s-26-2.2-31.2-0.9
	c-1.8,0.5-3.6,0.6-5.4,0.1c0.2-2.2,0.4-3.5,0.4-3.5s77.3-12.5,80.4-9.7C556.6,570.6,557,572.9,557.3,576.2z"/>
<path class="st6" d="M563,563.2c0,0-0.7,9-9,12.2s-17.2,7.7-23.3,5.9s-19,0-19,0s-26-2.2-31.2-0.9s-7.9-0.4-6.3-2.7s1.4-10,1.4-13.3
	s-1.8-16.3-0.2-18.7s3-11.3,6.3-12.8c1-0.4,1.7-1.3,2-2.3c0.3-1.1,0.3-2.2,0-3.3c0,0-0.5-0.5-1.3-1.1c-1.9-1.7-5.1-4.8-4.1-5.9
	c1.4-1.4,0-10.8,0-10.8s-3.4-7.2-2.2-9.9s-11-16.9-11-16.9s0-24.4,14.7-25.5c0,0,10.4,0.4,11.7-4.3s9.5-7.4,9.5-7.4l18.8,4.1
	c0,0,16.7,3.6,19.8,1.4s5.3,2.9,5.3,2.9s10.4,0.5,11.5,2.7c1.1,2.1-3.4,23.2-3.4,23.2s-7.5-0.7-7,7.4s-2.9,18.3-2.9,18.3
	s-0.5,5.9-0.2,7.2s-0.7,5.7-0.9,6.4v0.1c0,0-0.7,3,0.2,4.1c0.1,0.1,0.2,0.2,0.3,0.2c1.4,0.7,3.6,7.7,3.6,7.7
	c1.1,1.4,1.7,3.1,1.6,4.8c-0.2,2.9,0.9,9.7,5.6,13.7S563,563.2,563,563.2z"/>
<path class="st6" d="M482.9,522.6v0.8l-0.3,8.4c0,0-11,0.9-17-0.6s-3.5-8.2-3.3-9.5l0,0c0.2-1.3,1.8-11.8,1.8-13.5s0-8.7-0.3-11.9
	s1.3-12.2,1.3-12.2l1.2-1.4l12.7,4.8L482.9,522.6z"/>
<path class="st8" d="M482.9,523.4l-0.3,8.4c0,0-11,0.9-17-0.6s-3.5-8.2-3.3-9.5L482.9,523.4z"/>
<path class="st8" d="M483.7,531.7c0.3-1.1,0.3-2.2,0-3.3c0,0-0.5-0.5-1.3-1.1c9.5-1.3,47.2-6.5,59.9-7v0.1c0,0-0.7,3,0.2,4.1
	L483.7,531.7z"/>
<path class="st8" d="M543.6,538.2c0,0,2.3,13.2-6.4,17.9C537.2,556.1,542.2,549.6,543.6,538.2z"/>
<path class="st8" d="M486.6,556.5c0,0,21-3.6,25.1-0.8S486.6,556.5,486.6,556.5z"/>
<path class="st8" d="M536.3,474.7c0,0-3.2,13.3-0.8,16.3S536.3,474.7,536.3,474.7z"/>
<path class="st8" d="M475.4,463.8c0,0,3,4.9,1.2,10S475.4,463.8,475.4,463.8z"/>
<path class="st8" d="M469.3,507.1c0,0,3.8,2.3,2.5,5.8S469.3,507.1,469.3,507.1z"/>
<path class="st8" d="M469,496.9c0,0,3.5,1.9,4,4.7S469,496.9,469,496.9z"/>
<path class="st8" d="M520.9,604.2c0,0,22,2.3,26.4-3C547.3,601.3,527.4,605.2,520.9,604.2z"/>
<path class="st8" d="M482.9,603c0,0,23.6,5.6,28.3,1.2C511.2,604.2,490.9,605.7,482.9,603z"/>
<path class="st8" d="M522.6,611.5c0,0,9.9,0,14.5,0.3S522.6,611.5,522.6,611.5z"/>
<path class="st8" d="M484.5,615.7c0,0,4.8,5.5,10.3,4.5S484.5,615.7,484.5,615.7z"/>
<path class="st11" d="M494,391.4c-1.5,2.4-1.6,5.1-2,7.7c-1.1,6.4-4.1,12.3-8.6,17c-4.3,4.6-10.2,8.7-11.3,14.3
	c-1,5.3,2.5,10.4,4.4,15.6c5,13.6-2,27.9-4,42c-0.6,3.9,0.1,8.9,4.9,10.2c1.5,0.4,3.2,0.3,4.6,1c1.8,0.9,2.3,2.7,2.7,4.3
	c1.2,5.8,1.6,11.7,1.2,17.6c-0.2,3.3-0.5,7.1,2.7,9.4c1.6,1,3.3,1.7,5.2,2.1c4.9,1.3,11.3,2.4,14.6-0.7c1.4-1.3,1.9-3.1,3.7-4.2
	c2.6-1.5,6.3-0.5,9.6-0.3c6.3,0.3,12.3-2.9,15.5-8.3c2.7-4.8,2.4-10.2,1.4-15.3s-2.7-10.2-2.8-15.4c-0.2-1.8,0.2-3.6,1.2-5.2
	c2-3.1,6.7-4.5,9.8-6.9c6-4.6,5.9-12,3.8-18.3s-6.1-12.2-6.5-18.7c-0.2-1.6,0.1-3.2,0.9-4.5c1.1-1.3,2.3-2.4,3.7-3.3
	c8.7-7.4,7.7-19.4,0.5-27.7C541,394.3,504.9,374.6,494,391.4z"/>
<g class="st22">
	<path d="M477.6,451.8c0.8-5.4,0.4-11-1.4-16.2c-0.9-2.6-2.3-5.2-3.3-7.8c-0.5,0.9-0.9,2-1.1,3c-1,5.3,2.5,10.4,4.4,15.6
		C476.9,448.1,477.4,450,477.6,451.8z"/>
	<path d="M485.7,510.6c0.4-5.9,0-11.8-1.2-17.6c-0.3-1.6-0.9-3.4-2.7-4.3c-1.3-0.7-3.1-0.6-4.6-1c-1.9-0.5-3.4-1.7-4.2-3.5
		c-0.3,1.4-0.5,2.7-0.7,4.1c-0.6,3.9,0.1,8.9,4.9,10.2c1.5,0.4,3.2,0.3,4.6,1c1.8,0.9,2.3,2.7,2.7,4.3c0.6,2.7,0.9,5.4,1.2,8.1
		C485.6,511.5,485.6,511,485.7,510.6z"/>
	<path d="M536.8,508.5c-3.3,5.4-9.2,8.6-15.5,8.3c-3.3-0.2-7-1.2-9.6,0.3c-1.7,1-2.3,2.9-3.7,4.2c-3.3,3.1-9.7,2-14.6,0.7
		c-1.8-0.4-3.6-1.1-5.2-2.1c-1.4-1-2.3-2.5-2.6-4.1c0,1.8,0,3.7-0.1,5.5c-0.2,3.3-0.5,7.1,2.7,9.4c1.6,1,3.3,1.7,5.2,2.1
		c4.9,1.3,11.3,2.4,14.6-0.7c1.4-1.3,1.9-3.2,3.7-4.2c2.6-1.5,6.3-0.5,9.6-0.3c6.3,0.3,12.3-2.9,15.5-8.3c2.5-4.6,2.4-9.8,1.5-14.7
		C538.1,505.9,537.5,507.2,536.8,508.5z"/>
	<path d="M548.2,420.6c-1.4,1-2.6,2.1-3.6,3.4c-0.8,1.4-1.1,3-0.9,4.5c0.2,2,0.6,3.9,1.2,5.8c1-1.1,2.1-2,3.3-2.9
		c5.9-5,7.3-12.1,5.4-18.8C552.6,415.8,550.8,418.6,548.2,420.6z"/>
	<path d="M546.5,465.6c-3.2,2.4-7.8,3.8-9.8,6.9c-0.9,1.6-1.3,3.4-1.2,5.2c0.1,2.1,0.3,4.2,0.8,6.3c0.1-0.2,0.2-0.5,0.4-0.7
		c2-3.1,6.7-4.5,9.8-6.9c5.4-4.2,5.9-10.8,4.3-16.6C550,462,548.5,464.1,546.5,465.6z"/>
</g>
<path class="st6" d="M587.5,467.8c-3.7,9.3-8.5,13-8.5,13h-2.7l-23.3,0.2l-2.7-7.4l3.8-15.9l2.3,0.1c1.4,0.7,2.9,1.2,4.5,1.4
	c1.7,0,5-0.1,6,0.4c0.1,0.1,0.3,0.1,0.4,0.1c0.9-0.1,1.8-1.4,1.8-1.4S591.2,458.4,587.5,467.8z"/>
<path class="st8" d="M587.5,467.8c-3.7,9.3-8.5,13-8.5,13h-2.7c1.4-3.7,4.3-11.3,5.4-13s-8.7-5.8-14.4-8c0.9-0.1,1.8-1.4,1.8-1.4
	S591.2,458.4,587.5,467.8z"/>
</svg>
